<?xml version="1.0" standalone="no"?>
<svg version="1.1" baseProfile="full" xmlns="http://www.w3.org/2000/svg" width="816" height="1055" viewBox="0 0 816 1055" style="margin:0 auto; __background:url(img/cbg2.png) no-repeat 0 0;">
	<defs>
		<style>
			.h1{font-family:Times New Roman; fill:#000000; font-weight:bold; __fill:red}
			.ffi {font-family:impact, Arial;__fill:red}
			.p2 {font-family:Times New Roman; font-size:14px; fill:#333; __fill:red}
			.p2b {font-family:Times New Roman; font-size:14px; font-weight:bold; fill:#333; __fill:red}
			.h2 {font-family:Times New Roman; font-size:16px; font-variant:small-caps; fill:#333; font-weight:normal; __fill:red}
			.li-disc {fill:#000000; __fill:red}
			.text-cap {text-transform:capitalize;}
		</style>
	</defs>
	<line x1="33" y1="34" x2="783" y2="34" stroke="#545454" stroke-width="2"/>
	<text x="0" y="74" class="h1">
		<tspan style="font-size:32px" dx="290">C</tspan>
		<tspan style="font-size:26px" dx="-2">HRISTINA</tspan>
		<tspan style="font-size:32px" dx="10">J</tspan>
		<tspan style="font-size:26px" dx="-2">OHNSON</tspan>
	</text>

	<line x1="33" y1="95.5" x2="783" y2="95.5" stroke="#545454" stroke-width="1"/>
	<line x1="33" y1="100.5" x2="783" y2="100.5" stroke="#545454" stroke-width="3"/>
    <text x="75" y="127" class="p2">
		<tspan>24 Harbour Lane , St Albans , Herts AL13 4AZ</tspan>
		<tspan x="363">H: 01727 756423</tspan>
		<tspan x="485">M: 07984 598985</tspan>
		<tspan x="606">cjohnson111@live.co.uk</tspan>
	</text>

	<circle cx="352" cy="123" r="3" class="li-disc"></circle>
	<circle cx="472" cy="123" r="3" class="li-disc"></circle>
	<circle cx="594" cy="123" r="3" class="li-disc"></circle>

	
	<line x1="33" y1="160.5" x2="350" y2="160.5" stroke="#545454" stroke-width="1"/>
	<text x="365" y="166" class="h2">
	<tspan style="font-size:20px">O</tspan>
	<tspan dx="-4">BJECTIVE</tspan>
	</text>
	<line x1="465" y1="160.5" x2="783" y2="160.5" stroke="#545454" stroke-width="1"/>
	<text x="33" y="195" class="p2">To find a fulfilling position where I can apply my skills and knowledge.</text>
	
	<line x1="33" y1="230.5" x2="300" y2="230.5" stroke="#545454" stroke-width="1"/>
	<text x="320" y="235" class="h2">
	<tspan style="font-size:20px">P</tspan>
	<tspan dx="-4">ROFESSIONAL</tspan>
	<tspan style="font-size:20px">S</tspan>
	<tspan dx="-4">UMMARY</tspan>
	 </text>
	<line x1="540" y1="230.5" x2="783" y2="230.5" stroke="#545454" stroke-width="1"/> 
	<text x="33" y="265" class="p2">Accomplished Operations executive with a successful track record overseeing regional Marketing, IT, HR/training
		<tspan x="33" y="275" dx="0" dy="10" class="p2">and property in company and franchise operations for a large chain of restaurants.</tspan> 
	</text>	


	<circle  cx="51" cy="335" r="3" class="li-circle"/>
	<circle  cx="425" cy="335" r="3" class="li-circle"/>
	<circle  cx="51" cy="355" r="3" class="li-circle"/>
	<circle  cx="425" cy="355" r="3" class="li-circle"/>
	<circle  cx="51" cy="395" r="3" class="li-circle"/>
	<circle  cx="425" cy="375" r="3" class="li-circle"/>

	<line x1="33" y1="310.5" x2="360" y2="310.5" stroke="#545454" stroke-width="1"/>
	<text x="380" y="315" class="h2">
	<tspan style="font-size:20px">S</tspan>
	<tspan dx="-4">KILLS</tspan>
	</text>
	<line x1="455" y1="310.5" x2="783" y2="310.5" stroke="#545454" stroke-width="1"/> 
	<text x="65" y="340" class="p2">Executive team leadership</text>	
	<text x="65" y="360" class="p2">Multi-million pound P&amp;L management expertise for 
		<tspan x="65" y="370" dx="0" dy="10">South East region</tspan>
	</text>
	<text x="65" y="400" class="p2">Client/Vendor relations</text>
	
	<text x="440" y="340" class="p2">Marketing/product line development</text>
	<text x="440" y="360" class="p2">Staff/training policy development</text>		
	<text x="440" y="380" class="p2">Process improvement</text>

	<circle  cx="51" cy="446" r="3" class="li-circle"/>
	<circle  cx="51" cy="485" r="3" class="li-circle"/>
	<circle  cx="51" cy="505" r="3" class="li-circle"/>	

	<line x1="33" y1="415.5" x2="320" y2="415.5" stroke="#545454" stroke-width="1"/>
	<text x="340" y="420" class="h2">
	<tspan style="font-size:20px">A</tspan>
	<tspan dx="-4">CHIEVEMENTS</tspan></text>	
	<line x1="485" y1="415.5" x2="783" y2="415.5" stroke="#545454" stroke-width="1"/> 
	
	<text x="65" y="450" class="p2">Initiated regional growth for 200+ restaurants through development of people and processes in Marketing, 
		<tspan x="65" y="460" dx="0" dy="10">HR, Finance and IT to run the brand.</tspan>
	</text>
	<text x="65" y="490" class="p2">Administered and executed multi-million pound P&amp;L for several locations.</text>
	<text x="65" y="510" class="p2">Successfully decreased food costs by £1 million.</text>	
	
	<circle  cx="51" cy="591" r="3" class="li-circle"/>
	<circle  cx="51" cy="631" r="3" class="li-circle"/>
	<circle  cx="51" cy="650" r="3" class="li-circle"/>
	<circle  cx="51" cy="730" r="3" class="li-circle"/>
	<circle  cx="51" cy="750" r="3" class="li-circle"/>
	<circle  cx="51" cy="770" r="3" class="li-circle"/>
	
	<line x1="33" y1="530.5" x2="340" y2="530.5" stroke="#545454" stroke-width="1"/>
	<text x="360" y="535" class="h2">
	<tspan style="font-size:20px">E</tspan>
	<tspan dx="-4">XPERIENCE</tspan>
	</text>	
	<line x1="480" y1="530.5" x2="783" y2="530.5" stroke="#545454" stroke-width="1"/>
	
	<text x="33" y="555" class="pb">Executive Vice President, 09/2009 - 03/2011</text>
	<text x="33" y="575" class="p2"><tspan class="pb">Pizza Hut UK &amp; Ireland</tspan> - St Albans, Herts</text>	

	<text x="64" y="595" class="p2">Led operations involved in running the brand including Marketing, IT, HR/training, development/construction,
		<tspan x="64" y="595" dx="0" dy="20">property and P&amp;L for 200 store locations.</tspan>
	</text>
	<text x="64" y="635" class="p2">Oversaw operations for all regional company and franchise locations. 		
	</text>
	<text x="64" y="655" class="p2">Assessed profitability of existing company processes to determine optimum organisational structure for
		<tspan x="64" y="655" dx="0" dy="20">maximum revenue growth.</tspan>
	</text>	
	<text x="33" y="695" class="pb">Senior Vice President, 08/1997 to 09/2009</text>
	<text x="33" y="715" class="p2"><tspan class="pb">Café Rouge</tspan> - London</text>	

	<text x="64" y="735" class="p2">Directed departmental alignment on strategies to create strong sales.</text>
	<text x="64" y="755" class="p2">Cultivated strong franchise owner relationships to achieve high operating standards.	</text>
	<text x="64" y="775" class="p2">Implemented process improvements to increase customer loyalty and satisfaction.</text>	


	<line x1="33" y1="799.5" x2="350" y2="799.5" stroke="#545454" stroke-width="1"/>
	<text x="370" y="805" class="h2">
	<tspan style="font-size:20px">E</tspan>
	<tspan dx="-4">DUCATION</tspan>
	</text>
	<line x1="480" y1="799.5" x2="783" y2="799.5" stroke="#545454" stroke-width="1"/>
	<text x="33" y="815" class="p">
		<tspan x="33" y="825" class="pb">BA (Hons): </tspan>
		<tspan dx="10" dy="0" class="p2"> Business Management, 1991</tspan>
		<tspan x="33" y="830" dx="0" dy="15" class="p2"><tspan class="pb">University of Westminster</tspan> - Greater London</tspan>
		<tspan x="33" y="840" dx="0" dy="25" class="p2">Coursework includes: Speech and Communication, Sociology and Psychology</tspan>		
	</text>	
	
	<line x1="33" y1="890.5" x2="365" y2="890.5" stroke="#545454" stroke-width="1"/>
	<text x="380" y="895" class="h2">
	<tspan style="font-size:20px">A</tspan>
	<tspan dx="-4">WARDS</tspan>
	</text>
	<line x1="465" y1="890.5" x2="783" y2="890.5" stroke="#545454" stroke-width="1"/>
	<text x="33" y="915" class="p2">Distinguished Service Award, 2011</text>
	
	<line x1="33" y1="940.5" x2="335" y2="940.5" stroke="#545454" stroke-width="1"/>
	<text x="350" y="945" class="h2">
	<tspan style="font-size:20px">Q</tspan>
	<tspan dx="-4">UALIFICATIONS</tspan>
	</text>
	<line x1="495" y1="940.5" x2="783" y2="940.5" stroke="#545454" stroke-width="1"/>
	<text x="33" y="970" class="p2">CGMA (Chartered Global Management Accountant) conferred by the Chartered Institute of Management
		<tspan x="33" y="970" dx="0" dy="20">Accountants (CIMA), 2010</tspan>
	</text>	
</svg>